<?xml version="1.0" encoding="iso-8859-1"?>
<!-- Generator: Adobe Illustrator 18.0.0, SVG Export Plug-In . SVG Version: 6.00 Build 0)  -->
<!DOCTYPE svg PUBLIC "-//W3C//DTD SVG 1.1//EN" "http://www.w3.org/Graphics/SVG/1.1/DTD/svg11.dtd">
<svg xmlns="http://www.w3.org/2000/svg" xmlns:xlink="http://www.w3.org/1999/xlink" version="1.1" id="Capa_1" x="0px" y="0px" viewBox="0 0 490.201 490.201" style="enable-background:new 0 0 490.201 490.201;" xml:space="preserve" width="512px" height="512px">
<path id="XMLID_320_" d="M432.147,232.27v-45.225C432.147,83.768,348.375,0,245.097,0C141.806,0,58.054,83.768,58.054,187.046v45.24  c-19.83,15.615-32.727,39.22-32.727,66.014c0,47.074,39.183,85.253,87.508,85.253v94.223c0,6.86,5.565,12.426,12.449,12.426h14.231  c6.879,0,12.443-5.565,12.443-12.426v-44.345c0-6.881,5.564-12.446,12.423-12.446h6.053c6.884,0,12.45,5.565,12.45,12.446v44.345  c0,6.86,5.558,12.426,12.422,12.426h21.901c6.886,0,12.45-5.565,12.45-12.426v-44.345c0-6.881,5.559-12.446,12.423-12.446h6.054  c6.878,0,12.443,5.565,12.443,12.446v44.345c0,6.86,5.564,12.426,12.429,12.426h21.901c6.878,0,12.443-5.565,12.443-12.426v-44.345  c0-6.881,5.564-12.446,12.429-12.446h6.054c6.879,0,12.442,5.565,12.442,12.446v44.345c0,6.86,5.565,12.426,12.431,12.426h14.21  c6.88,0,12.443-5.565,12.443-12.426v-94.223c48.327,0,87.516-38.179,87.516-85.253C464.875,271.506,451.956,247.901,432.147,232.27z   M158.097,301.706c-29.849,0-53.995-24.18-53.995-53.988c0-20.287,11.298-37.739,27.822-46.96l79.37,54.628  C207.532,281.539,185.272,301.706,158.097,301.706z M245.097,370.504c-16.086,0-29.103-13.069-29.103-29.089  c0-16.066,13.018-50.769,29.103-50.769c16.087,0,29.09,34.702,29.09,50.769C274.187,357.435,261.184,370.504,245.097,370.504z   M332.104,301.706c-27.177,0-49.435-20.182-53.177-46.335l79.35-54.599c16.522,9.223,27.822,26.658,27.822,46.945  C386.099,277.526,361.953,301.706,332.104,301.706z" fill="#FFFFFF"/>
<g>
</g>
<g>
</g>
<g>
</g>
<g>
</g>
<g>
</g>
<g>
</g>
<g>
</g>
<g>
</g>
<g>
</g>
<g>
</g>
<g>
</g>
<g>
</g>
<g>
</g>
<g>
</g>
<g>
</g>
</svg>
